<?xml version='1.0' encoding='UTF-8'?>
<svg width="59.4mm" height="59.4mm" version="1.1" viewBox="0 0 59.4 59.4" xmlns="http://www.w3.org/2000/svg"><path d="M3.6,3.6H5.4V5.4H3.6zM5.4,3.6H7.2V5.4H5.4zM7.2,3.6H9V5.4H7.2zM9,3.6H10.8V5.4H9zM10.8,3.6H12.6V5.4H10.8zM12.6,3.6H14.4V5.4H12.6zM14.4,3.6H16.2V5.4H14.4zM18,3.6H19.8V5.4H18zM21.6,3.6H23.4V5.4H21.6zM25.2,3.6H27V5.4H25.2zM27,3.6H28.8V5.4H27zM28.8,3.6H30.6V5.4H28.8zM30.6,3.6H32.4V5.4H30.6zM34.2,3.6H36V5.4H34.2zM36,3.6H37.8V5.4H36zM43.2,3.6H45V5.4H43.2zM45,3.6H46.8V5.4H45zM46.8,3.6H48.6V5.4H46.8zM48.6,3.6H50.4V5.4H48.6zM50.4,3.6H52.2V5.4H50.4zM52.2,3.6H54V5.4H52.2zM54,3.6H55.8V5.4H54zM3.6,5.4H5.4V7.2H3.6zM14.4,5.4H16.2V7.2H14.4zM19.8,5.4H21.6V7.2H19.8zM21.6,5.4H23.4V7.2H21.6zM30.6,5.4H32.4V7.2H30.6zM43.2,5.4H45V7.2H43.2zM54,5.4H55.8V7.2H54zM3.6,7.2H5.4V9H3.6zM7.2,7.2H9V9H7.2zM9,7.2H10.8V9H9zM10.8,7.2H12.6V9H10.8zM14.4,7.2H16.2V9H14.4zM18,7.2H19.8V9H18zM19.8,7.2H21.6V9H19.8zM21.6,7.2H23.4V9H21.6zM23.4,7.2H25.2V9H23.4zM27,7.2H28.8V9H27zM34.2,7.2H36V9H34.2zM39.6,7.2H41.4V9H39.6zM43.2,7.2H45V9H43.2zM46.8,7.2H48.6V9H46.8zM48.6,7.2H50.4V9H48.6zM50.4,7.2H52.2V9H50.4zM54,7.2H55.8V9H54zM3.6,9H5.4V10.8H3.6zM7.2,9H9V10.8H7.2zM9,9H10.8V10.8H9zM10.8,9H12.6V10.8H10.8zM14.4,9H16.2V10.8H14.4zM21.6,9H23.4V10.8H21.6zM23.4,9H25.2V10.8H23.4zM25.2,9H27V10.8H25.2zM30.6,9H32.4V10.8H30.6zM32.4,9H34.2V10.8H32.4zM34.2,9H36V10.8H34.2zM36,9H37.8V10.8H36zM37.8,9H39.6V10.8H37.8zM39.6,9H41.4V10.8H39.6zM43.2,9H45V10.8H43.2zM46.8,9H48.6V10.8H46.8zM48.6,9H50.4V10.8H48.6zM50.4,9H52.2V10.8H50.4zM54,9H55.8V10.8H54zM3.6,10.8H5.4V12.6H3.6zM7.2,10.8H9V12.6H7.2zM9,10.8H10.8V12.6H9zM10.8,10.8H12.6V12.6H10.8zM14.4,10.8H16.2V12.6H14.4zM23.4,10.8H25.2V12.6H23.4zM25.2,10.8H27V12.6H25.2zM30.6,10.8H32.4V12.6H30.6zM32.4,10.8H34.2V12.6H32.4zM34.2,10.8H36V12.6H34.2zM43.2,10.8H45V12.6H43.2zM46.8,10.8H48.6V12.6H46.8zM48.6,10.8H50.4V12.6H48.6zM50.4,10.8H52.2V12.6H50.4zM54,10.8H55.8V12.6H54zM3.6,12.6H5.4V14.4H3.6zM14.4,12.6H16.2V14.4H14.4zM18,12.6H19.8V14.4H18zM23.4,12.6H25.2V14.4H23.4zM25.2,12.6H27V14.4H25.2zM27,12.6H28.8V14.4H27zM28.8,12.6H30.6V14.4H28.8zM32.4,12.6H34.2V14.4H32.4zM34.2,12.6H36V14.4H34.2zM39.6,12.6H41.4V14.4H39.6zM43.2,12.6H45V14.4H43.2zM54,12.6H55.8V14.4H54zM3.6,14.4H5.4V16.2H3.6zM5.4,14.4H7.2V16.2H5.4zM7.2,14.4H9V16.2H7.2zM9,14.4H10.8V16.2H9zM10.8,14.4H12.6V16.2H10.8zM12.6,14.4H14.4V16.2H12.6zM14.4,14.4H16.2V16.2H14.4zM18,14.4H19.8V16.2H18zM21.6,14.4H23.4V16.2H21.6zM25.2,14.4H27V16.2H25.2zM28.8,14.4H30.6V16.2H28.8zM32.4,14.4H34.2V16.2H32.4zM36,14.4H37.8V16.2H36zM39.6,14.4H41.4V16.2H39.6zM43.2,14.4H45V16.2H43.2zM45,14.4H46.8V16.2H45zM46.8,14.4H48.6V16.2H46.8zM48.6,14.4H50.4V16.2H48.6zM50.4,14.4H52.2V16.2H50.4zM52.2,14.4H54V16.2H52.2zM54,14.4H55.8V16.2H54zM19.8,16.2H21.6V18H19.8zM21.6,16.2H23.4V18H21.6zM27,16.2H28.8V18H27zM3.6,18H5.4V19.8H3.6zM7.2,18H9V19.8H7.2zM14.4,18H16.2V19.8H14.4zM16.2,18H18V19.8H16.2zM21.6,18H23.4V19.8H21.6zM27,18H28.8V19.8H27zM30.6,18H32.4V19.8H30.6zM32.4,18H34.2V19.8H32.4zM37.8,18H39.6V19.8H37.8zM39.6,18H41.4V19.8H39.6zM45,18H46.8V19.8H45zM50.4,18H52.2V19.8H50.4zM54,18H55.8V19.8H54zM3.6,19.8H5.4V21.6H3.6zM5.4,19.8H7.2V21.6H5.4zM9,19.8H10.8V21.6H9zM10.8,19.8H12.6V21.6H10.8zM21.6,19.8H23.4V21.6H21.6zM32.4,19.8H34.2V21.6H32.4zM37.8,19.8H39.6V21.6H37.8zM39.6,19.8H41.4V21.6H39.6zM41.4,19.8H43.2V21.6H41.4zM43.2,19.8H45V21.6H43.2zM45,19.8H46.8V21.6H45zM52.2,19.8H54V21.6H52.2zM54,19.8H55.8V21.6H54zM7.2,21.6H9V23.4H7.2zM9,21.6H10.8V23.4H9zM10.8,21.6H12.6V23.4H10.8zM14.4,21.6H16.2V23.4H14.4zM16.2,21.6H18V23.4H16.2zM19.8,21.6H21.6V23.4H19.8zM27,21.6H28.8V23.4H27zM28.8,21.6H30.6V23.4H28.8zM32.4,21.6H34.2V23.4H32.4zM34.2,21.6H36V23.4H34.2zM37.8,21.6H39.6V23.4H37.8zM39.6,21.6H41.4V23.4H39.6zM43.2,21.6H45V23.4H43.2zM45,21.6H46.8V23.4H45zM46.8,21.6H48.6V23.4H46.8zM48.6,21.6H50.4V23.4H48.6zM50.4,21.6H52.2V23.4H50.4zM54,21.6H55.8V23.4H54zM3.6,23.4H5.4V25.2H3.6zM12.6,23.4H14.4V25.2H12.6zM19.8,23.4H21.6V25.2H19.8zM21.6,23.4H23.4V25.2H21.6zM25.2,23.4H27V25.2H25.2zM28.8,23.4H30.6V25.2H28.8zM30.6,23.4H32.4V25.2H30.6zM32.4,23.4H34.2V25.2H32.4zM36,23.4H37.8V25.2H36zM41.4,23.4H43.2V25.2H41.4zM46.8,23.4H48.6V25.2H46.8zM48.6,23.4H50.4V25.2H48.6zM3.6,25.2H5.4V27H3.6zM5.4,25.2H7.2V27H5.4zM12.6,25.2H14.4V27H12.6zM14.4,25.2H16.2V27H14.4zM16.2,25.2H18V27H16.2zM19.8,25.2H21.6V27H19.8zM23.4,25.2H25.2V27H23.4zM25.2,25.2H27V27H25.2zM27,25.2H28.8V27H27zM28.8,25.2H30.6V27H28.8zM32.4,25.2H34.2V27H32.4zM36,25.2H37.8V27H36zM37.8,25.2H39.6V27H37.8zM43.2,25.2H45V27H43.2zM45,25.2H46.8V27H45zM54,25.2H55.8V27H54zM3.6,27H5.4V28.8H3.6zM5.4,27H7.2V28.8H5.4zM7.2,27H9V28.8H7.2zM9,27H10.8V28.8H9zM19.8,27H21.6V28.8H19.8zM21.6,27H23.4V28.8H21.6zM23.4,27H25.2V28.8H23.4zM27,27H28.8V28.8H27zM28.8,27H30.6V28.8H28.8zM34.2,27H36V28.8H34.2zM37.8,27H39.6V28.8H37.8zM39.6,27H41.4V28.8H39.6zM43.2,27H45V28.8H43.2zM45,27H46.8V28.8H45zM52.2,27H54V28.8H52.2zM54,27H55.8V28.8H54zM5.4,28.8H7.2V30.6H5.4zM7.2,28.8H9V30.6H7.2zM12.6,28.8H14.4V30.6H12.6zM14.4,28.8H16.2V30.6H14.4zM18,28.8H19.8V30.6H18zM19.8,28.8H21.6V30.6H19.8zM23.4,28.8H25.2V30.6H23.4zM30.6,28.8H32.4V30.6H30.6zM32.4,28.8H34.2V30.6H32.4zM37.8,28.8H39.6V30.6H37.8zM41.4,28.8H43.2V30.6H41.4zM43.2,28.8H45V30.6H43.2zM45,28.8H46.8V30.6H45zM46.8,28.8H48.6V30.6H46.8zM54,28.8H55.8V30.6H54zM7.2,30.6H9V32.4H7.2zM9,30.6H10.8V32.4H9zM12.6,30.6H14.4V32.4H12.6zM16.2,30.6H18V32.4H16.2zM18,30.6H19.8V32.4H18zM21.6,30.6H23.4V32.4H21.6zM27,30.6H28.8V32.4H27zM32.4,30.6H34.2V32.4H32.4zM36,30.6H37.8V32.4H36zM37.8,30.6H39.6V32.4H37.8zM39.6,30.6H41.4V32.4H39.6zM43.2,30.6H45V32.4H43.2zM45,30.6H46.8V32.4H45zM10.8,32.4H12.6V34.2H10.8zM14.4,32.4H16.2V34.2H14.4zM16.2,32.4H18V34.2H16.2zM27,32.4H28.8V34.2H27zM30.6,32.4H32.4V34.2H30.6zM32.4,32.4H34.2V34.2H32.4zM39.6,32.4H41.4V34.2H39.6zM41.4,32.4H43.2V34.2H41.4zM43.2,32.4H45V34.2H43.2zM54,32.4H55.8V34.2H54zM9,34.2H10.8V36H9zM19.8,34.2H21.6V36H19.8zM21.6,34.2H23.4V36H21.6zM23.4,34.2H25.2V36H23.4zM30.6,34.2H32.4V36H30.6zM32.4,34.2H34.2V36H32.4zM34.2,34.2H36V36H34.2zM37.8,34.2H39.6V36H37.8zM43.2,34.2H45V36H43.2zM45,34.2H46.8V36H45zM50.4,34.2H52.2V36H50.4zM52.2,34.2H54V36H52.2zM54,34.2H55.8V36H54zM3.6,36H5.4V37.8H3.6zM5.4,36H7.2V37.8H5.4zM9,36H10.8V37.8H9zM10.8,36H12.6V37.8H10.8zM12.6,36H14.4V37.8H12.6zM14.4,36H16.2V37.8H14.4zM18,36H19.8V37.8H18zM23.4,36H25.2V37.8H23.4zM27,36H28.8V37.8H27zM28.8,36H30.6V37.8H28.8zM30.6,36H32.4V37.8H30.6zM37.8,36H39.6V37.8H37.8zM46.8,36H48.6V37.8H46.8zM48.6,36H50.4V37.8H48.6zM54,36H55.8V37.8H54zM7.2,37.8H9V39.6H7.2zM9,37.8H10.8V39.6H9zM12.6,37.8H14.4V39.6H12.6zM19.8,37.8H21.6V39.6H19.8zM21.6,37.8H23.4V39.6H21.6zM23.4,37.8H25.2V39.6H23.4zM25.2,37.8H27V39.6H25.2zM28.8,37.8H30.6V39.6H28.8zM32.4,37.8H34.2V39.6H32.4zM39.6,37.8H41.4V39.6H39.6zM43.2,37.8H45V39.6H43.2zM46.8,37.8H48.6V39.6H46.8zM3.6,39.6H5.4V41.4H3.6zM5.4,39.6H7.2V41.4H5.4zM7.2,39.6H9V41.4H7.2zM9,39.6H10.8V41.4H9zM10.8,39.6H12.6V41.4H10.8zM12.6,39.6H14.4V41.4H12.6zM14.4,39.6H16.2V41.4H14.4zM16.2,39.6H18V41.4H16.2zM19.8,39.6H21.6V41.4H19.8zM27,39.6H28.8V41.4H27zM28.8,39.6H30.6V41.4H28.8zM32.4,39.6H34.2V41.4H32.4zM39.6,39.6H41.4V41.4H39.6zM41.4,39.6H43.2V41.4H41.4zM43.2,39.6H45V41.4H43.2zM45,39.6H46.8V41.4H45zM46.8,39.6H48.6V41.4H46.8zM48.6,39.6H50.4V41.4H48.6zM52.2,39.6H54V41.4H52.2zM18,41.4H19.8V43.2H18zM21.6,41.4H23.4V43.2H21.6zM23.4,41.4H25.2V43.2H23.4zM27,41.4H28.8V43.2H27zM28.8,41.4H30.6V43.2H28.8zM30.6,41.4H32.4V43.2H30.6zM32.4,41.4H34.2V43.2H32.4zM36,41.4H37.8V43.2H36zM39.6,41.4H41.4V43.2H39.6zM46.8,41.4H48.6V43.2H46.8zM48.6,41.4H50.4V43.2H48.6zM50.4,41.4H52.2V43.2H50.4zM54,41.4H55.8V43.2H54zM3.6,43.2H5.4V45H3.6zM5.4,43.2H7.2V45H5.4zM7.2,43.2H9V45H7.2zM9,43.2H10.8V45H9zM10.8,43.2H12.6V45H10.8zM12.6,43.2H14.4V45H12.6zM14.4,43.2H16.2V45H14.4zM18,43.2H19.8V45H18zM21.6,43.2H23.4V45H21.6zM25.2,43.2H27V45H25.2zM30.6,43.2H32.4V45H30.6zM34.2,43.2H36V45H34.2zM39.6,43.2H41.4V45H39.6zM43.2,43.2H45V45H43.2zM46.8,43.2H48.6V45H46.8zM54,43.2H55.8V45H54zM3.6,45H5.4V46.8H3.6zM14.4,45H16.2V46.8H14.4zM19.8,45H21.6V46.8H19.8zM27,45H28.8V46.8H27zM32.4,45H34.2V46.8H32.4zM36,45H37.8V46.8H36zM37.8,45H39.6V46.8H37.8zM39.6,45H41.4V46.8H39.6zM46.8,45H48.6V46.8H46.8zM52.2,45H54V46.8H52.2zM3.6,46.8H5.4V48.6H3.6zM7.2,46.8H9V48.6H7.2zM9,46.8H10.8V48.6H9zM10.8,46.8H12.6V48.6H10.8zM14.4,46.8H16.2V48.6H14.4zM23.4,46.8H25.2V48.6H23.4zM27,46.8H28.8V48.6H27zM32.4,46.8H34.2V48.6H32.4zM37.8,46.8H39.6V48.6H37.8zM39.6,46.8H41.4V48.6H39.6zM41.4,46.8H43.2V48.6H41.4zM43.2,46.8H45V48.6H43.2zM45,46.8H46.8V48.6H45zM46.8,46.8H48.6V48.6H46.8zM48.6,46.8H50.4V48.6H48.6zM52.2,46.8H54V48.6H52.2zM54,46.8H55.8V48.6H54zM3.6,48.6H5.4V50.4H3.6zM7.2,48.6H9V50.4H7.2zM9,48.6H10.8V50.4H9zM10.8,48.6H12.6V50.4H10.8zM14.4,48.6H16.2V50.4H14.4zM19.8,48.6H21.6V50.4H19.8zM25.2,48.6H27V50.4H25.2zM30.6,48.6H32.4V50.4H30.6zM37.8,48.6H39.6V50.4H37.8zM39.6,48.6H41.4V50.4H39.6zM41.4,48.6H43.2V50.4H41.4zM46.8,48.6H48.6V50.4H46.8zM48.6,48.6H50.4V50.4H48.6zM50.4,48.6H52.2V50.4H50.4zM54,48.6H55.8V50.4H54zM3.6,50.4H5.4V52.2H3.6zM7.2,50.4H9V52.2H7.2zM9,50.4H10.8V52.2H9zM10.8,50.4H12.6V52.2H10.8zM14.4,50.4H16.2V52.2H14.4zM18,50.4H19.8V52.2H18zM19.8,50.4H21.6V52.2H19.8zM23.4,50.4H25.2V52.2H23.4zM27,50.4H28.8V52.2H27zM30.6,50.4H32.4V52.2H30.6zM34.2,50.4H36V52.2H34.2zM41.4,50.4H43.2V52.2H41.4zM46.8,50.4H48.6V52.2H46.8zM52.2,50.4H54V52.2H52.2zM54,50.4H55.8V52.2H54zM3.6,52.2H5.4V54H3.6zM14.4,52.2H16.2V54H14.4zM19.8,52.2H21.6V54H19.8zM27,52.2H28.8V54H27zM28.8,52.2H30.6V54H28.8zM30.6,52.2H32.4V54H30.6zM32.4,52.2H34.2V54H32.4zM39.6,52.2H41.4V54H39.6zM45,52.2H46.8V54H45zM46.8,52.2H48.6V54H46.8zM48.6,52.2H50.4V54H48.6zM3.6,54H5.4V55.8H3.6zM5.4,54H7.2V55.8H5.4zM7.2,54H9V55.8H7.2zM9,54H10.8V55.8H9zM10.8,54H12.6V55.8H10.8zM12.6,54H14.4V55.8H12.6zM14.4,54H16.2V55.8H14.4zM18,54H19.8V55.8H18zM23.4,54H25.2V55.8H23.4zM25.2,54H27V55.8H25.2zM30.6,54H32.4V55.8H30.6zM32.4,54H34.2V55.8H32.4zM39.6,54H41.4V55.8H39.6zM46.8,54H48.6V55.8H46.8zM48.6,54H50.4V55.8H48.6zM54,54H55.8V55.8H54z" id="qr-path" fill="#000000" fill-opacity="1" fill-rule="nonzero" stroke="none"/></svg>